<svg xmlns="http://www.w3.org/2000/svg" width="16" height="16" viewBox="0 0 16 16">
    <path fill="#92929D" fill-rule="evenodd" d="M5.663 3.867a.667.667 0 0 1-1.326 0h-1.67v1.066h10.666V3.867h-1.07a.667.667 0 0 1-1.326 0H5.663zm0 0h5.274-5.274zm-1.33-1.334V2a.667.667 0 0 1 1.334 0v.533h5.266V2a.667.667 0 0 1 1.334 0v.533H13.4c.7 0 1.267.567 1.267 1.267v8.867a2 2 0 0 1-2 2H3.333a2 2 0 0 1-2-2V3.8c0-.7.567-1.267 1.267-1.267h1.733zm9 3.734H2.667v6.4c0 .368.298.666.666.666h9.334a.667.667 0 0 0 .666-.666v-6.4zM4.4 8.667a.667.667 0 0 1 0-1.334h2.4a.667.667 0 0 1 0 1.334H4.4zm0 2.4a.667.667 0 0 1 0-1.334h4.8a.667.667 0 0 1 0 1.334H4.4z"/>
</svg>
