<svg xmlns="http://www.w3.org/2000/svg" width="16" height="20" viewBox="0 0 16 20">
    <g fill="none" fill-rule="evenodd">
        <g fill="#4B4B4B" fill-rule="nonzero" opacity=".5">
            <path d="M10.533 12.596H.705c-.186 0-.365.074-.496.206-.132.131-.206.31-.206.496s.074.365.206.497c.131.131.31.205.496.205h9.828c.187 0 .365-.074.497-.205.131-.132.205-.31.205-.497 0-.186-.074-.365-.205-.496-.132-.132-.31-.206-.497-.206zM.705 11.192h.063l2.928-.267c.32-.032.62-.173.85-.4l6.317-6.318c.246-.26.378-.605.369-.962-.01-.356-.16-.695-.418-.94L8.891.38C8.64.145 8.31.01 7.966 0c-.344-.01-.68.108-.943.33L.705 6.65c-.227.229-.368.529-.4.85l-.302 2.927c-.01.102.004.206.039.303s.091.185.165.258c.065.065.143.117.228.152.086.035.178.052.27.052zm7.21-9.828L9.83 3.28 8.427 4.649 6.546 2.768l1.369-1.404zM1.667 7.619l3.952-3.925L7.515 5.59 3.583 9.52l-2.106.197.19-2.1z" transform="translate(2.35 3)"/>
        </g>
    </g>
</svg>
