<svg xmlns="http://www.w3.org/2000/svg" width="18" height="21" viewBox="0 0 18 21">
    <path fill="#92929D" fill-rule="evenodd" d="M9.001 0a3 3 0 0 1 2.98 2.641 7.223 7.223 0 0 1 4.243 6.581v5.018l1.67 3.31a1 1 0 0 1-.893 1.45h-5.17a3.001 3.001 0 0 1-5.659 0h-5.17a1 1 0 0 1-.893-1.45l1.67-3.31V9.222a7.224 7.224 0 0 1 4.243-6.58A3.001 3.001 0 0 1 9.002 0zm0 4A5.222 5.222 0 0 0 3.78 9.222v5.256a1 1 0 0 1-.107.45L2.626 17h12.75l-1.045-2.071a1 1 0 0 1-.107-.451V9.222A5.222 5.222 0 0 0 9 4z"/>
</svg>
