<svg xmlns="http://www.w3.org/2000/svg" width="20" height="22" viewBox="0 0 20 22">
    <path fill="#92929D" fill-rule="evenodd" d="M10 0c1.404 0 2.616.976 2.906 2.34l.056.265c1.057.366 2.037.925 2.888 1.652l.257-.084c1.335-.433 2.793.12 3.495 1.327.702 1.206.456 2.736-.589 3.666l-.202.18c.209 1.094.207 2.216-.001 3.307l.203.18c1.045.931 1.291 2.46.59 3.667-.703 1.206-2.161 1.76-3.496 1.327l-.258-.084c-.421.36-.878.68-1.366.96-.489.28-.997.511-1.521.694l-.056.264C12.616 21.024 11.404 22 10 22c-1.404 0-2.616-.976-2.906-2.34l-.056-.265c-1.057-.366-2.037-.925-2.888-1.652l-.257.084C2.558 18.26 1.1 17.707.398 16.5c-.702-1.206-.456-2.736.589-3.666l.202-.18C.98 11.56.982 10.438 1.19 9.347l-.203-.18C-.058 8.235-.304 6.706.397 5.5 1.1 4.294 2.559 3.74 3.894 4.173l.258.084c.421-.36.878-.68 1.366-.96.489-.28.997-.511 1.521-.694l.056-.264C7.384.976 8.596 0 10 0zm0 2c-.45 0-.84.313-.933.751l-.178.837c-.078.367-.355.66-.72.759-.57.155-1.121.383-1.644.682-.522.3-.997.659-1.417 1.071-.269.264-.663.356-1.022.24l-.82-.266c-.429-.14-.897.039-1.122.426-.226.387-.147.879.189 1.177l.644.573c.28.25.397.636.301.998-.303 1.148-.307 2.355-.001 3.504.096.363-.02.749-.302 1l-.642.57c-.336.3-.415.79-.19 1.178.226.387.694.565 1.123.426l.82-.266c.359-.116.754-.024 1.023.24.85.838 1.906 1.438 3.06 1.75.364.1.642.393.72.76l.178.839c.093.438.482.751.933.751.45 0 .84-.313.933-.751l.178-.837c.078-.367.355-.66.72-.759.57-.155 1.121-.383 1.644-.682.522-.3.997-.659 1.417-1.071.269-.264.663-.356 1.022-.24l.82.266c.429.14.897-.039 1.122-.426.226-.387.147-.879-.189-1.177l-.644-.573c-.28-.25-.397-.636-.301-.998.303-1.148.307-2.355.001-3.504-.096-.363.02-.749.302-1l.642-.57c.336-.3.415-.79.19-1.178-.226-.387-.694-.565-1.123-.426l-.82.266c-.359.116-.754.024-1.023-.24-.85-.838-1.906-1.438-3.06-1.75-.364-.1-.642-.393-.72-.76l-.178-.839C10.84 2.313 10.451 2 10 2zm0 5.368c2.022 0 3.66 1.626 3.66 3.632 0 2.006-1.638 3.632-3.66 3.632-2.022 0-3.66-1.626-3.66-3.632 0-2.006 1.638-3.632 3.66-3.632zm0 2c-.908 0-1.645.73-1.645 1.632 0 .901.737 1.632 1.645 1.632s1.645-.73 1.645-1.632c0-.901-.737-1.632-1.645-1.632z"/>
</svg>
