<svg xmlns="http://www.w3.org/2000/svg" width="20" height="20" viewBox="0 0 20 20">
    <path fill="#92929D" fill-rule="evenodd" d="M4 10h1c2.21 0 4 1.79 4 4v2c0 2.21-1.79 4-4 4H4c-2.21 0-4-1.79-4-4v-2c0-2.21 1.79-4 4-4zm0 2c-1.105 0-2 .895-2 2v2c0 1.105.895 2 2 2h1c1.105 0 2-.895 2-2v-2c0-1.105-.895-2-2-2H4zM3.5 0C5.433 0 7 1.567 7 3.5v1C7 6.433 5.433 8 3.5 8S0 6.433 0 4.5v-1C0 1.567 1.567 0 3.5 0zm0 2C2.672 2 2 2.672 2 3.5v1C2 5.328 2.672 6 3.5 6S5 5.328 5 4.5v-1C5 2.672 4.328 2 3.5 2zM15 9h1c2.21 0 4 1.79 4 4v3c0 2.21-1.79 4-4 4h-1c-2.21 0-4-1.79-4-4v-3c0-2.21 1.79-4 4-4zm0 2c-1.105 0-2 .895-2 2v3c0 1.105.895 2 2 2h1c1.105 0 2-.895 2-2v-3c0-1.105-.895-2-2-2h-1zM12.5 0h4C18.433 0 20 1.567 20 3.5S18.433 7 16.5 7h-4C10.567 7 9 5.433 9 3.5S10.567 0 12.5 0zm0 2c-.828 0-1.5.672-1.5 1.5S11.672 5 12.5 5h4c.828 0 1.5-.672 1.5-1.5S17.328 2 16.5 2h-4z"/>
</svg>
